<svg xmlns="http://www.w3.org/2000/svg" xmlns:xlink="http://www.w3.org/1999/xlink" width="1920" height="1080" viewBox="0 0 1920 1080">
  <defs>
    <clipPath id="clip-Web_1920_1">
      <rect width="1920" height="1080"/>
    </clipPath>
  </defs>
  <g id="Web_1920_1" data-name="Web 1920 – 1" clip-path="url(#clip-Web_1920_1)">
    <rect width="1920" height="1080" fill="#fff"/>
    <g id="Path_10" data-name="Path 10" transform="translate(549.804 167)" fill="none">
      <path d="M408.537-.5C649.8,56.744,823.486,258.913,817.083,408.05S596.28,778.481,370.647,778.481-5.05,591.046-.008,408.05,167.276-57.735,408.537-.5Z" stroke="none"/>
      <path d="M 345.8295593261719 -4.0086669921875 C 297.7199096679688 -4.0086669921875 251.189208984375 9.7757568359375 207.5300903320312 36.961669921875 C 197.40966796875 43.2635498046875 187.3471069335938 50.3623046875 177.6220092773438 58.060791015625 C 168.1505737304688 65.55841064453125 158.7743530273438 73.802734375 149.7537841796875 82.56475830078125 C 132.33642578125 99.4827880859375 115.7723388671875 118.7635498046875 100.5216674804688 139.8715209960938 C 85.93865966796875 160.055419921875 72.50689697265625 181.9713134765625 60.599365234375 205.0105590820312 C 49.09857177734375 227.2627563476562 39.04931640625 250.497314453125 30.7305908203125 274.0688781738281 C 14.37725830078125 320.4071960449219 5.13067626953125 366.7752075195312 3.9903564453125 408.1600952148438 C 3.3580322265625 431.1124267578125 5.205322265625 454.47509765625 9.481201171875 477.5993041992188 C 13.70654296875 500.4503173828125 20.31988525390625 523.16650390625 29.13775634765625 545.1168823242188 C 37.9520263671875 567.0586547851562 48.9990234375 588.3099975585938 61.9716796875 608.280517578125 C 75.08990478515625 628.47509765625 90.2327880859375 647.4432373046875 106.9797973632812 664.657958984375 C 123.1826782226562 681.3135375976562 141.0074462890625 696.445068359375 159.9591064453125 709.6324462890625 C 179.4589233398438 723.2012329101562 200.3710327148438 734.8614501953125 222.1146850585938 744.289306640625 C 233.246337890625 749.115966796875 244.772216796875 753.4298706054688 256.3721313476562 757.111328125 C 268.1912231445312 760.8623046875 280.3845825195312 764.0509033203125 292.6132202148438 766.5885620117188 C 305.08544921875 769.1767578125 317.9124450683594 771.1537475585938 330.7378845214844 772.4645385742188 C 343.8290100097656 773.8025512695312 357.2562255859375 774.48095703125 370.6466674804688 774.48095703125 C 384.341552734375 774.48095703125 398.3564453125 773.6419677734375 412.3019104003906 771.9871826171875 C 425.8804626464844 770.3759765625 439.72412109375 767.9523315429688 453.4484558105469 764.7835693359375 C 479.9155578613281 758.6725463867188 506.7030029296875 749.6337890625 533.066650390625 737.918212890625 C 558.2135620117188 726.743408203125 583.1456909179688 713.0626220703125 607.1703491210938 697.2559814453125 C 630.2672119140625 682.0597534179688 652.5527954101562 664.8861083984375 673.4078979492188 646.2119750976562 C 713.8961181640625 609.9580078125 748.3025512695312 568.6728515625 772.907470703125 526.8198852539062 C 785.1248779296875 506.0379638671875 794.7546997070312 485.406005859375 801.5294799804688 465.4969787597656 C 808.427001953125 445.2273254394531 812.3153686523438 425.8416442871094 813.0865478515625 407.8783264160156 C 813.8610229492188 389.8414306640625 811.93603515625 370.6798706054688 807.364990234375 350.9258728027344 C 802.8546752929688 331.4339904785156 795.7523193359375 311.2873229980469 786.255126953125 291.045654296875 C 776.7866821289062 270.8653259277344 764.9143676757812 250.539306640625 750.9681396484375 230.6321105957031 C 736.9066772460938 210.560546875 720.6968994140625 190.8593139648438 702.7891235351562 172.075439453125 C 684.5350952148438 152.9285278320312 664.430908203125 134.6473388671875 643.0350341796875 117.73974609375 C 621.01953125 100.3426513671875 597.468017578125 84.26953125 573.034423828125 69.96697998046875 C 547.7112426757812 55.14373779296875 521.1600341796875 42.06097412109375 494.1183471679688 31.08221435546875 C 480.2084655761719 25.43487548828125 465.9476623535156 20.25799560546875 451.7321166992188 15.6954345703125 C 437.2088928222656 11.03411865234375 422.3654479980469 6.8961181640625 407.614013671875 3.39630126953125 C 397.1459045410156 0.91278076171875 386.5828857421875 -0.969482421875 376.2185668945312 -2.197998046875 C 366.0821228027344 -3.39947509765625 355.8577880859375 -4.0086669921875 345.8295593261719 -4.0086669921875 M 345.82958984375 -8.0086669921875 C 366.0700073242188 -8.0086669921875 386.9793090820312 -5.6103515625 408.537353515625 -0.49566650390625 C 649.7987060546875 56.74365234375 823.4859008789062 258.9125366210938 817.0828857421875 408.0498657226562 C 810.6798706054688 557.1871948242188 596.2801513671875 778.48095703125 370.6466674804688 778.48095703125 C 145.0132446289062 778.48095703125 -5.05010986328125 591.0457763671875 -0.00811767578125 408.0498657226562 C 4.5833740234375 241.4056701660156 139.5545043945312 -8.0086669921875 345.82958984375 -8.0086669921875 Z" stroke="none" fill="#d72323"/>
    </g>
    <g id="Path_11" data-name="Path 11" transform="translate(379.979 554.514) rotate(-48)" fill="none">
      <path d="M352.072,7.467C593.333,64.706,803.633,301.977,797.23,451.114s-209.066,391.4-434.7,391.4S-4.912,601.083.13,418.088,110.811-49.773,352.072,7.467Z" stroke="none"/>
      <path d="M 291.0024719238281 4 C 279.0607299804688 4 267.2096557617188 4.94580078125 255.7783813476562 6.81121826171875 C 244.6763916015625 8.62286376953125 233.675537109375 11.34991455078125 223.081298828125 14.91650390625 C 212.7904663085938 18.381103515625 202.6119995117188 22.72906494140625 192.8287353515625 27.83978271484375 C 183.3248291015625 32.80450439453125 173.9463500976562 38.6181640625 164.9535522460938 45.11932373046875 C 156.2192993164062 51.43353271484375 147.6248168945312 58.55828857421875 139.408935546875 66.29541015625 C 131.4322509765625 73.80731201171875 123.6112060546875 82.0859375 116.162841796875 90.90118408203125 C 101.8982543945312 107.7838134765625 88.54296875 127.1577758789062 76.468017578125 148.4852294921875 C 65.0970458984375 168.5693359375 54.734619140625 190.6023559570312 45.6685791015625 213.9722900390625 C 37.10894775390625 236.037109375 29.66021728515625 259.3977661132812 23.529541015625 283.4056701660156 C 17.6988525390625 306.2386169433594 13.07330322265625 329.5897827148438 9.78118896484375 352.8104858398438 C 6.60943603515625 375.182861328125 4.7076416015625 397.182373046875 4.12860107421875 418.1979064941406 C 3.40472412109375 444.4692077636719 5.7314453125 472.0875549316406 11.04400634765625 500.2857971191406 C 16.350830078125 528.4534301757812 24.55096435546875 556.7455444335938 35.4166259765625 584.3762817382812 C 46.48486328125 612.5220336914062 60.165771484375 639.5798950195312 76.07940673828125 664.7982788085938 C 92.564453125 690.922119140625 111.3155517578125 714.8507080078125 131.811767578125 735.91943359375 C 146.97802734375 751.5093383789062 163.2037963867188 765.6173095703125 180.0382690429688 777.8515625 C 188.6836547851562 784.1346435546875 197.6348266601562 790.0258178710938 206.6429443359375 795.3616943359375 C 215.8323364257812 800.8049926757812 225.3179931640625 805.8104858398438 234.8363647460938 810.2391967773438 C 244.5518798828125 814.7596435546875 254.554931640625 818.7970581054688 264.5674438476562 822.2393188476562 C 274.79248046875 825.7545166015625 285.2969360351562 828.741455078125 295.7889404296875 831.1171875 C 306.5080261230469 833.5443725585938 317.4990844726562 835.3981323242188 328.4570617675781 836.6268310546875 C 339.6556701660156 837.8827514648438 351.1197814941406 838.5194091796875 362.5309448242188 838.5194091796875 C 376.2005920410156 838.5194091796875 390.1555480957031 837.6030883789062 404.0083618164062 835.7958984375 C 417.4762573242188 834.0388793945312 431.1807250976562 831.3963623046875 444.740966796875 827.9420166015625 C 457.9284973144531 824.58251953125 471.2989501953125 820.3739013671875 484.48095703125 815.43310546875 C 497.3071899414062 810.6256713867188 510.2580261230469 805.0115356445312 522.9736328125 798.7467041015625 C 547.4950561523438 786.6653442382812 571.7884521484375 771.8696899414062 595.1790771484375 754.7706298828125 C 617.5121459960938 738.4445190429688 639.0761108398438 719.9856567382812 659.2719116210938 699.9068603515625 C 698.0137939453125 661.3892211914062 731.0509643554688 617.6087646484375 754.811767578125 573.2984619140625 C 766.458740234375 551.5787353515625 775.6577758789062 530.1298828125 782.1533203125 509.5475463867188 C 788.731201171875 488.7047424316406 792.4591674804688 468.9872131347656 793.23388671875 450.9429626464844 C 794.0028076171875 433.0323791503906 791.5599975585938 413.4092102050781 785.9732055664062 392.6184997558594 C 780.4981079101562 372.2435607910156 772.00927734375 350.7548522949219 760.7424926757812 328.7494506835938 C 749.5830688476562 306.9537963867188 735.73388671875 284.7175598144531 719.5798950195312 262.6583862304688 C 703.361572265625 240.5114135742188 684.8782348632812 218.6236572265625 664.6434326171875 197.6028442382812 C 644.0436401367188 176.202880859375 621.6637573242188 155.740966796875 598.1254272460938 136.78564453125 C 573.870361328125 117.253173828125 548.335205078125 99.28411865234375 522.2293090820312 83.3778076171875 C 495.0819091796875 66.83685302734375 467.1353149414062 52.4200439453125 439.165771484375 40.52752685546875 C 424.7380065917969 34.3929443359375 410.0932922363281 28.845458984375 395.6382446289062 24.03887939453125 C 380.8361206054688 19.1168212890625 365.8677673339844 14.8505859375 351.1485900878906 11.3585205078125 C 340.7413024902344 8.88934326171875 330.3501281738281 7.01861572265625 320.2637634277344 5.79815673828125 C 310.4033203125 4.60498046875 300.5584716796875 4 291.0024719238281 4 M 291.0025329589844 0 C 310.3133850097656 0 330.6465148925781 2.38330078125 352.072021484375 7.46649169921875 C 593.3334350585938 64.7059326171875 803.6331787109375 301.9772033691406 797.230224609375 451.114501953125 C 790.8272094726562 600.2517700195312 588.1646118164062 842.5194091796875 362.5309448242188 842.5194091796875 C 136.8976440429688 842.5194091796875 -4.911865234375 601.0834350585938 0.130126953125 418.0877990722656 C 4.724365234375 251.3427734375 92.864013671875 0 291.0025329589844 0 Z" stroke="none" fill="#d72323"/>
    </g>
    <g id="Path_12" data-name="Path 12" transform="translate(437.318 856.133) rotate(-82)" fill="none">
      <path d="M346.519,8.155C583.974,70.667,790.957,329.8,784.655,492.677S578.887,920.142,356.813,920.142-4.834,656.462.128,456.607,109.063-54.358,346.519,8.155Z" stroke="none"/>
      <path d="M 286.4124755859375 4.00018310546875 C 274.6856994628906 4.00018310546875 263.0479736328125 5.03076171875 251.8225708007812 7.06341552734375 C 240.918701171875 9.03778076171875 230.1133422851562 12.010009765625 219.7063598632812 15.89776611328125 C 209.5925903320312 19.676025390625 199.5879516601562 24.41839599609375 189.9703369140625 29.993408203125 C 180.6221923828125 35.41229248046875 171.3960571289062 41.7586669921875 162.5482177734375 48.85626220703125 C 153.9505615234375 55.753173828125 145.4898071289062 63.5360107421875 137.4008178710938 71.98876953125 C 129.5452270507812 80.1978759765625 121.8421020507812 89.24542236328125 114.505859375 98.880126953125 C 100.4529418945312 117.3355102539062 87.29547119140625 138.515380859375 75.39898681640625 161.831298828125 C 64.19561767578125 183.7887573242188 53.9859619140625 207.8767700195312 45.0537109375 233.4261474609375 C 36.62060546875 257.5481567382812 29.281982421875 283.0867919921875 23.241943359375 309.332763671875 C 11.90771484375 358.5837707519531 5.2978515625 409.5446472167969 4.1268310546875 456.7063903808594 C 3.37109375 487.1414184570312 5.979736328125 519.15576171875 11.88006591796875 551.8602905273438 C 17.77911376953125 584.556884765625 26.84222412109375 617.2456665039062 38.81768798828125 649.0181884765625 C 51.0535888671875 681.4813842773438 66.10723876953125 712.3790283203125 83.56048583984375 740.8526611328125 C 101.7172241210938 770.473876953125 122.2747192382812 797.1297607421875 144.6619873046875 820.0797729492188 C 174.0968627929688 850.2545166015625 206.4000854492188 873.7528076171875 240.674560546875 889.921630859375 C 249.5921020507812 894.1285400390625 258.7557373046875 897.8827514648438 267.9111938476562 901.0803833007812 C 277.2440795898438 904.3400268554688 286.8177185058594 907.108154296875 296.3663330078125 909.3080444335938 C 306.1035766601562 911.5513916015625 316.0769653320312 913.2640380859375 326.0092163085938 914.3983764648438 C 336.1413269042969 915.5556640625 346.5052185058594 916.1423950195312 356.8127136230469 916.1423950195312 C 370.2452087402344 916.1423950195312 383.9587097167969 915.1431274414062 397.5719604492188 913.1724243164062 C 410.8094482421875 911.2561645507812 424.2800903320312 908.3740234375 437.6097106933594 904.6060180664062 C 450.5758361816406 900.94091796875 463.7225952148438 896.3489990234375 476.6848449707031 890.9578857421875 C 489.2998352050781 885.711181640625 502.0380859375 879.5838012695312 514.5458374023438 872.7457885742188 C 538.672607421875 859.5556640625 562.5768432617188 843.4005126953125 585.5946044921875 824.729248046875 C 607.5773315429688 806.8975219726562 628.803955078125 786.7351684570312 648.6849365234375 764.8021240234375 C 686.8349609375 722.7146606445312 719.370361328125 674.8704223632812 742.7738647460938 626.441650390625 C 754.2523193359375 602.6891479492188 763.3194580078125 579.229248046875 769.7230834960938 556.713623046875 C 776.214111328125 533.890869140625 779.8931884765625 512.2938232421875 780.658203125 492.5219116210938 C 781.41796875 472.8841552734375 779.00634765625 451.3774108886719 773.490234375 428.5990295410156 C 768.0906982421875 406.3027648925781 759.7215576171875 382.7929077148438 748.615234375 358.72265625 C 737.6212158203125 334.8958740234375 723.9789428710938 310.5899047851562 708.0674438476562 286.4797973632812 C 692.0972290039062 262.28076171875 673.897705078125 238.3660278320312 653.974609375 215.39990234375 C 633.695556640625 192.0234985351562 611.6649780273438 169.6726684570312 588.494873046875 148.96826171875 C 564.6226806640625 127.6365356445312 539.49169921875 108.0130004882812 513.7999267578125 90.64276123046875 C 487.0878295898438 72.5826416015625 459.590576171875 56.84228515625 432.0722045898438 43.85888671875 C 417.8795776367188 37.16265869140625 403.4738464355469 31.1072998046875 389.2552185058594 25.86102294921875 C 374.6970825195312 20.4893798828125 359.975830078125 15.83355712890625 345.5002136230469 12.02276611328125 C 335.2732238769531 9.33038330078125 325.0628356933594 7.29052734375 315.1527099609375 5.95989990234375 C 305.4673461914062 4.6595458984375 295.7976989746094 4.00018310546875 286.4124755859375 4.00018310546875 M 286.4124145507812 0.0001220703125 C 305.4186401367188 0.0001220703125 325.4310607910156 2.60302734375 346.5185852050781 8.154541015625 C 583.9744873046875 70.66741943359375 790.9572143554688 329.7988891601562 784.6552124023438 492.676513671875 C 778.3532104492188 655.5541381835938 578.88720703125 920.1423950195312 356.8127136230469 920.1423950195312 C 134.7382202148438 920.1423950195312 -4.83441162109375 656.46240234375 0.12811279296875 456.6071472167969 C 4.6497802734375 274.4995727539062 91.3992919921875 0.0001220703125 286.4124145507812 0.0001220703125 Z" stroke="none" fill="#d72323"/>
    </g>
  </g>
</svg>
