<svg xmlns="http://www.w3.org/2000/svg" xmlns:xlink="http://www.w3.org/1999/xlink" width="1920" height="850" viewBox="0 0 1920 850">
  <defs>
    <clipPath id="clip-Home_4">
      <rect width="1920" height="850"/>
    </clipPath>
  </defs>
  <g id="Home_4" data-name="Home – 4" clip-path="url(#clip-Home_4)">
    <rect width="1920" height="850" fill="#fff"/>
    <text id="I_am_" data-name="I am… " transform="translate(634 314)" font-size="91" font-family="Montserrat-SemiBold, Montserrat" font-weight="600"><tspan x="189.591" y="88">I am… </tspan></text>
    <text id="Disciplined" transform="translate(6 127)" font-size="91" font-family="Montserrat-SemiBold, Montserrat" font-weight="600"><tspan x="62.784" y="88">Disciplined</tspan></text>
    <text id="Nelson_Doan" data-name="Nelson Doan" transform="translate(634 412)" font-size="91" font-family="Montserrat-SemiBold, Montserrat" font-weight="600"><tspan x="24.791" y="88">Nelson Doan</tspan></text>
    <text id="Driven" transform="translate(6 221)" font-size="91" font-family="Montserrat-SemiBold, Montserrat" font-weight="600"><tspan x="170.3" y="88">Driven</tspan></text>
    <text id="Dedicated" transform="translate(-10 307)" font-size="91" font-family="Montserrat-SemiBold, Montserrat" font-weight="600"><tspan x="82.622" y="88">Dedicated</tspan></text>
    <text id="D" transform="translate(6 417)" font-size="91" font-family="Montserrat-SemiBold, Montserrat" font-weight="600"><tspan x="8.417" y="88">D</tspan></text>
    <g id="Group_8" data-name="Group 8" transform="translate(-93 -466)">
      <rect id="Rectangle_28" data-name="Rectangle 28" width="355" height="127" transform="translate(151 466)" fill="#ff7474"/>
      <line id="Line_1" data-name="Line 1" y1="127" transform="translate(151.5 466)" fill="none" stroke="#000" stroke-width="7"/>
    </g>
    <g id="Cirlcles" transform="translate(52.544 787.147) rotate(-48)">
      <g id="Path_10" data-name="Path 10" transform="translate(510.802 41.931)" fill="none">
        <path d="M363.328-.628C577.9,55.6,732.372,254.217,726.677,400.731S530.3,764.645,329.629,764.645-4.506,580.507-.022,400.731,148.756-56.86,363.328-.628Z" stroke="none"/>
        <path d="M 307.5570983886719 -4.00860595703125 C 264.91943359375 -4.00860595703125 223.6663208007812 9.49615478515625 184.9436645507812 36.1304931640625 C 167.1660766601562 48.3583984375 149.898193359375 63.41424560546875 133.6199951171875 80.87982177734375 C 118.1366577148438 97.49249267578125 103.4105224609375 116.4273681640625 89.85064697265625 137.1583862304688 C 76.881103515625 156.9869384765625 64.93475341796875 178.5182495117188 54.34356689453125 201.1541748046875 C 44.1126708984375 223.0201721191406 35.17266845703125 245.8522644042969 27.77197265625 269.0162658691406 C 13.219970703125 314.5635986328125 4.99176025390625 360.1441650390625 3.97698974609375 400.8305053710938 C 3.37786865234375 424.8466186523438 5.2755126953125 449.2780456542969 9.61700439453125 473.4463806152344 C 13.90643310546875 497.3252563476562 20.58441162109375 520.9718017578125 29.46533203125 543.7291870117188 C 38.35400390625 566.5062866210938 49.45074462890625 588.3955078125 62.44732666015625 608.7890625 C 75.62298583984375 629.4635009765625 90.76995849609375 648.6265258789062 107.4676513671875 665.7457275390625 C 121.6326293945312 680.2686157226562 137.024658203125 693.4221801757812 153.2160034179688 704.8409423828125 C 169.8587646484375 716.5781860351562 187.5789794921875 726.6449584960938 205.8843994140625 734.761474609375 C 244.6200866699219 751.9368286132812 286.253662109375 760.6453857421875 329.6288757324219 760.6453857421875 C 341.7750854492188 760.6453857421875 354.2056579589844 759.8233032226562 366.5753173828125 758.2020263671875 C 378.6219787597656 756.623046875 390.9047546386719 754.2477416992188 403.0823059082031 751.141845703125 C 426.5755310058594 745.1500244140625 450.3558654785156 736.2862548828125 473.7630004882812 724.7965087890625 C 496.0993041992188 713.832275390625 518.2468872070312 700.407958984375 539.5904541015625 684.8963623046875 C 560.1157836914062 669.9793701171875 579.9213256835938 653.1200561523438 598.4569091796875 634.7868041992188 C 634.4531860351562 599.1832885742188 665.0448608398438 558.6343994140625 686.924560546875 517.5236206054688 C 697.7935180664062 497.1013793945312 706.3612060546875 476.8242797851562 712.3896484375 457.2554931640625 C 718.5310668945312 437.31982421875 721.9932861328125 418.2498168945312 722.6802978515625 400.5753784179688 C 723.3701171875 382.8284912109375 721.656005859375 363.9775085449219 717.58544921875 344.5459289550781 C 713.5708618164062 325.3817138671875 707.2501831054688 305.576171875 698.7988891601562 285.6793823242188 C 690.376220703125 265.8502807617188 679.8163452148438 245.8794860839844 667.4122924804688 226.3215942382812 C 654.9089965820312 206.607177734375 640.49609375 187.2571411132812 624.57421875 168.8093872070312 C 608.3475341796875 150.0084838867188 590.4769897460938 132.0584106445312 571.458984375 115.4579467773438 C 551.8938598632812 98.37969970703125 530.9645385742188 82.6019287109375 509.2523193359375 68.56292724609375 C 486.7538757324219 54.0155029296875 463.1656494140625 41.17669677734375 439.1426391601562 30.40325927734375 C 426.7874145507812 24.86236572265625 414.1207580566406 19.78314208984375 401.4945373535156 15.30682373046875 C 388.596435546875 10.73406982421875 375.4140930175781 6.67474365234375 362.3137512207031 3.24151611328125 C 353.0336608886719 0.80950927734375 343.6703186035156 -1.03350830078125 334.4837646484375 -2.23626708984375 C 325.5018615722656 -3.41229248046875 316.4424133300781 -4.00860595703125 307.5570983886719 -4.00860595703125 M 307.55712890625 -8.0086669921875 C 325.5584106445312 -8.0086669921875 344.1546325683594 -5.65252685546875 363.3277587890625 -0.6278076171875 C 577.899169921875 55.6044921875 732.3720092773438 254.2169494628906 726.6773071289062 400.730712890625 C 720.982666015625 547.2445068359375 530.3012084960938 764.6453857421875 329.6288757324219 764.6453857421875 C 128.9564208984375 764.6453857421875 -4.50604248046875 580.5073852539062 -0.02178955078125 400.730712890625 C 4.061767578125 237.01806640625 124.1015014648438 -8.0086669921875 307.55712890625 -8.0086669921875 Z" stroke="none" fill="#d72323"/>
      </g>
      <g id="Path_11" data-name="Path 11" transform="translate(343.763 445.266) rotate(-48)" fill="none">
        <path d="M327.767,2.623C551.611,52.725,744.38,270.311,736.55,408.812s-199.5,365.9-409.516,368.73S-11.948,558.061-4.961,388.152,103.923-47.479,327.767,2.623Z" stroke="none"/>
        <path d="M 273.9799499511719 0.43896484375 C 262.7529602050781 0.43896484375 251.5989379882812 1.3262939453125 240.8278503417969 3.0762939453125 C 230.3676147460938 4.77569580078125 219.9904174804688 7.33392333984375 209.9844970703125 10.6796875 C 200.2655029296875 13.9296875 190.6405029296875 18.00823974609375 181.3770751953125 22.8023681640625 C 172.3784790039062 27.4593505859375 163.4865112304688 32.91259765625 154.9483032226562 39.0107421875 C 146.6559448242188 44.93304443359375 138.484375 51.615478515625 130.66064453125 58.87237548828125 C 123.0653686523438 65.91717529296875 115.6062622070312 73.680908203125 108.490478515625 81.94793701171875 C 94.86529541015625 97.777587890625 82.06219482421875 115.9420776367188 70.43695068359375 135.9367065429688 C 59.49273681640625 154.7600708007812 49.47119140625 175.4071655273438 40.650634765625 197.3046264648438 C 32.32574462890625 217.9714965820312 25.02850341796875 239.8470458984375 18.96148681640625 262.3236999511719 C 13.193603515625 283.6920471191406 8.55218505859375 305.5356140136719 5.16583251953125 327.2477111816406 C 1.90447998046875 348.1593933105469 -0.15814208984375 368.7055969238281 -0.9644775390625 388.3159484863281 C -1.9581298828125 412.4777221679688 -0.17938232421875 437.8374938964844 4.322265625 463.6908264160156 C 8.81842041015625 489.5123901367188 15.9610595703125 515.4290771484375 25.55181884765625 540.7208251953125 C 35.31658935546875 566.4712524414062 47.49017333984375 591.2228393554688 61.734375 614.2879638671875 C 76.47918701171875 638.1635131835938 93.33270263671875 660.0404663085938 111.8271484375 679.31103515625 C 125.5770874023438 693.637939453125 140.3294067382812 706.6028442382812 155.6743774414062 717.8455200195312 C 171.6099243164062 729.5209350585938 188.4495239257812 739.5309448242188 205.7251586914062 747.5974731445312 C 214.616943359375 751.749267578125 223.7814025878906 755.4573974609375 232.9640502929688 758.6187133789062 C 242.3409423828125 761.846923828125 251.9838256835938 764.5900268554688 261.6247253417969 766.7718505859375 C 271.4739379882812 769.000732421875 281.5829467773438 770.7030639648438 291.6711730957031 771.8314819335938 C 301.9808349609375 772.9847412109375 312.5449523925781 773.5695190429688 323.070068359375 773.5695190429688 C 324.3627319335938 773.5695190429688 325.6781616210938 773.5606079101562 326.9799499511719 773.5430297851562 C 339.692626953125 773.371826171875 352.6824951171875 772.3472900390625 365.5889587402344 770.4976196289062 C 378.1382751464844 768.6991577148438 390.9190673828125 766.0764770507812 403.576171875 762.702392578125 C 415.8866271972656 759.4207153320312 428.378173828125 755.3489379882812 440.7038269042969 750.6000366210938 C 452.6976318359375 745.9791870117188 464.8175048828125 740.608154296875 476.72705078125 734.6363525390625 C 499.6953735351562 723.1192626953125 522.4859619140625 709.0863647460938 544.4656372070312 692.92724609375 C 565.452392578125 677.498046875 585.7503051757812 660.099365234375 604.79541015625 641.2144775390625 C 641.3292846679688 604.9879150390625 672.6199340820312 563.9505004882812 695.2848510742188 522.53857421875 C 706.3926391601562 502.2430419921875 715.2194213867188 482.2303771972656 721.5197143554688 463.0567016601562 C 727.8971557617188 443.6481628417969 731.6105346679688 425.3218383789062 732.5565185546875 408.5867004394531 C 733.4949340820312 391.9857177734375 731.470703125 373.8368225097656 726.5400390625 354.6442565917969 C 721.706298828125 335.82861328125 714.0844116210938 316.0168151855469 703.8861694335938 295.7593688964844 C 693.7825927734375 275.68994140625 681.182861328125 255.2447204589844 666.4369506835938 234.9916076660156 C 651.6304931640625 214.6552734375 634.7138671875 194.587158203125 616.156982421875 175.3447265625 C 597.26416015625 155.75390625 576.70361328125 137.0554809570312 555.046630859375 119.7687377929688 C 532.7298583984375 101.9555053710938 509.2028198242188 85.6083984375 485.1191711425781 71.18170166015625 C 460.0750732421875 56.1796875 434.2610473632812 43.1578369140625 408.3944091796875 32.47796630859375 C 395.051513671875 26.96893310546875 381.4996032714844 22.00701904296875 368.1148376464844 17.73004150390625 C 354.4089660644531 13.3504638671875 340.5400695800781 9.5811767578125 326.8934936523438 6.5267333984375 C 317.7740478515625 4.485595703125 308.6527404785156 2.9385986328125 299.782958984375 1.9287109375 C 291.1007385253906 0.940185546875 282.4194030761719 0.43896484375 273.9799499511719 0.43896484375 M 273.9800109863281 -3.56109619140625 C 291.0639343261719 -3.56109619140625 308.9814453125 -1.5814208984375 327.7671813964844 2.623291015625 C 551.611083984375 52.72503662109375 744.379638671875 270.31103515625 736.5501708984375 408.8125 C 728.7208251953125 547.3138427734375 537.04931640625 774.7140502929688 327.0338439941406 777.542724609375 C 325.7135620117188 777.5604858398438 324.3839721679688 777.5694580078125 323.0700988769531 777.5694580078125 C 115.3899536132812 777.5694580078125 -11.90423583984375 556.9932250976562 -4.961181640625 388.151611328125 C 1.4395751953125 232.5007019042969 87.498046875 -3.56109619140625 273.9800109863281 -3.56109619140625 Z" stroke="none" fill="#d72323"/>
      </g>
      <g id="Path_12" data-name="Path 12" transform="translate(426.442 708.34) rotate(-82)" fill="none">
        <path d="M313.32,6.142C527.837,60.592,714.195,288.7,707.995,432.492S520.621,810.46,319.819,811.144-6.373,579.5-1.271,403.069,98.8-48.308,313.32,6.142Z" stroke="none"/>
        <path d="M 259.6533203125 3.1279296875 C 249.0382080078125 3.1279296875 238.5006408691406 4.0386962890625 228.3336486816406 5.8349609375 C 218.4588928222656 7.57952880859375 208.6701965332031 10.205810546875 199.2395324707031 13.64093017578125 C 190.0751953125 16.97906494140625 181.0066528320312 21.1690673828125 172.2857666015625 26.0946044921875 C 163.809326171875 30.882080078125 155.4404296875 36.48907470703125 147.4114379882812 42.75982666015625 C 139.6091918945312 48.853515625 131.9278564453125 55.73016357421875 124.5807495117188 63.1988525390625 C 117.4450073242188 70.4525146484375 110.4447631835938 78.4473876953125 103.7742919921875 86.9613037109375 C 90.99554443359375 103.271484375 79.018310546875 121.9902954101562 68.17529296875 142.5975952148438 C 57.96319580078125 162.0059204101562 48.64398193359375 183.2977294921875 40.4764404296875 205.8815307617188 C 32.76519775390625 227.2034912109375 26.040771484375 249.7770385742188 20.48974609375 272.9751586914062 C 10.07452392578125 316.5023803710938 3.93243408203125 361.5280456542969 2.7276611328125 403.1846008300781 C 1.9627685546875 429.6315002441406 4.14666748046875 457.4377136230469 9.21856689453125 485.8309631347656 C 14.28857421875 514.2128295898438 22.14251708984375 542.613525390625 32.56256103515625 570.2439575195312 C 43.2001953125 598.4515380859375 56.330322265625 625.3592529296875 71.58843994140625 650.2196044921875 C 87.4420166015625 676.0504150390625 105.4329833984375 699.3921508789062 125.0615234375 719.5966186523438 C 151.7382202148438 747.0559692382812 181.1434326171875 768.4564208984375 212.460205078125 783.2033081054688 C 220.6112060546875 787.04150390625 228.9931030273438 790.4675903320312 237.3727722167969 793.3861694335938 C 245.9177551269531 796.3623657226562 254.6884460449219 798.8902587890625 263.4408874511719 800.8994140625 C 272.369873046875 802.9491577148438 281.519775390625 804.51416015625 290.6363220214844 805.5509643554688 C 299.9404296875 806.6090698242188 309.4612121582031 807.1455078125 318.9344482421875 807.1455078125 C 319.2236633300781 807.1455078125 319.5156555175781 807.1449584960938 319.8052062988281 807.1439208984375 C 331.9374389648438 807.1026000976562 344.32666015625 806.1793823242188 356.628662109375 804.3997192382812 C 368.5916442871094 802.669189453125 380.7685546875 800.086181640625 392.8208923339844 796.722412109375 C 404.5451965332031 793.4501953125 416.4356689453125 789.3601684570312 428.1619873046875 784.5657348632812 C 439.5748901367188 779.8994750976562 451.1018676757812 774.4561767578125 462.4227600097656 768.3868408203125 C 484.2615356445312 756.6785888671875 505.9086608886719 742.3558349609375 526.7627563476562 725.816162109375 C 546.6799926757812 710.0197143554688 565.9212036132812 692.1697387695312 583.9520874023438 672.761962890625 C 618.5498657226562 635.5222778320312 648.091552734375 593.2244873046875 669.38330078125 550.44140625 C 679.82275390625 529.46484375 688.0828857421875 508.7554931640625 693.9342041015625 488.8887329101562 C 699.861572265625 468.7637329101562 703.2476806640625 449.7310485839844 703.9983520507812 432.3193969726562 C 704.74365234375 415.0348510742188 702.6344604492188 396.1102905273438 697.7294311523438 376.0712890625 C 692.924560546875 356.4419555664062 685.4417724609375 335.7496032714844 675.48876953125 314.5691833496094 C 665.6327514648438 293.5949401855469 653.3855590820312 272.2049560546875 639.0872192382812 250.993408203125 C 624.733642578125 229.6998291015625 608.36474609375 208.6632690429688 590.4351806640625 188.4680786132812 C 572.1839599609375 167.9105224609375 552.3468017578125 148.2627563476562 531.4745483398438 130.0706176757812 C 509.9695434570312 111.3269653320312 487.32177734375 94.09393310546875 464.1603393554688 78.85040283203125 C 440.0794372558594 63.0015869140625 415.2821960449219 49.20172119140625 390.4576416015625 37.8338623046875 C 377.654541015625 31.9710693359375 364.6571044921875 26.6741943359375 351.8262023925781 22.09027099609375 C 338.6894226074219 17.39715576171875 325.4029846191406 13.3358154296875 312.3359985351562 10.01904296875 C 303.2286682128906 7.7073974609375 294.1297607421875 5.95562744140625 285.2922058105469 4.812255859375 C 276.6527709960938 3.69464111328125 268.0266418457031 3.1279296875 259.6533203125 3.1279296875 M 259.6532897949219 -0.87200927734375 C 276.6382751464844 -0.87200927734375 294.5184326171875 1.36968994140625 313.3200988769531 6.14208984375 C 527.83740234375 60.5921630859375 714.1948852539062 288.6962890625 707.99462890625 432.4917297363281 C 701.7947387695312 576.2870483398438 520.6207885742188 810.4598388671875 319.8188781738281 811.1439208984375 C 319.5247497558594 811.1449584960938 319.2282104492188 811.1454467773438 318.9343872070312 811.1454467773438 C 118.6475830078125 811.1454467773438 -6.3658447265625 579.2428588867188 -1.27069091796875 403.0689392089844 C 3.3848876953125 242.0996704101562 82.848876953125 -0.87200927734375 259.6532897949219 -0.87200927734375 Z" stroke="none" fill="#d72323"/>
      </g>
    </g>
  </g>
</svg>
