<svg xmlns="http://www.w3.org/2000/svg" width="934" height="545" viewBox="0 0 934 545">
  <g id="logo" transform="translate(-197 -467)">
    <g id="Path_7" data-name="Path 7" transform="translate(669 540)">
      <path d="M 231 461.5 C 215.3605346679688 461.5 199.7310638427734 459.9244079589844 184.5457000732422 456.8170471191406 C 169.7464752197266 453.7886962890625 155.1895294189453 449.2699279785156 141.2791748046875 443.3863525390625 C 127.6211776733398 437.6095275878906 114.4480590820312 430.4593505859375 102.1255874633789 422.134521484375 C 89.92012023925781 413.8886413574219 78.44258880615234 404.4188232421875 68.01187896728516 393.9881286621094 C 57.5811767578125 383.5574035644531 48.11135482788086 372.0798950195312 39.86547088623047 359.8744201660156 C 31.54064750671387 347.5519409179688 24.39047050476074 334.3788146972656 18.6136474609375 320.7208251953125 C 12.73005867004395 306.8104858398438 8.211294174194336 292.2535400390625 5.18294095993042 277.4542846679688 C 2.075588226318359 262.2689514160156 0.5 246.6394653320312 0.5 231 C 0.5 215.3605346679688 2.075588226318359 199.7310638427734 5.18294095993042 184.5457000732422 C 8.211294174194336 169.7464752197266 12.73005867004395 155.1895294189453 18.6136474609375 141.2791748046875 C 24.39047050476074 127.6211776733398 31.54064750671387 114.4480590820312 39.86547088623047 102.1255874633789 C 48.11135482788086 89.92012023925781 57.5811767578125 78.44258880615234 68.01187896728516 68.01187896728516 C 78.44258880615234 57.5811767578125 89.92012023925781 48.11135482788086 102.1255874633789 39.86547088623047 C 114.4480590820312 31.54064750671387 127.6211776733398 24.39047050476074 141.2791748046875 18.6136474609375 C 155.1895294189453 12.73005867004395 169.7464752197266 8.211294174194336 184.5457000732422 5.18294095993042 C 199.7310638427734 2.075588226318359 215.3605346679688 0.5 231 0.5 C 246.6394653320312 0.5 262.2689514160156 2.075588226318359 277.4542846679688 5.18294095993042 C 292.2535400390625 8.211294174194336 306.8104858398438 12.73005867004395 320.7208251953125 18.6136474609375 C 334.3788146972656 24.39047050476074 347.5519409179688 31.54064750671387 359.8744201660156 39.86547088623047 C 372.0798950195312 48.11135482788086 383.5574035644531 57.5811767578125 393.9881286621094 68.01187896728516 C 404.4188232421875 78.44258880615234 413.8886413574219 89.92012023925781 422.134521484375 102.1255874633789 C 430.4593505859375 114.4480590820312 437.6095275878906 127.6211776733398 443.3863525390625 141.2791748046875 C 449.2699279785156 155.1895294189453 453.7886962890625 169.7464752197266 456.8170471191406 184.5457000732422 C 459.9244079589844 199.7310638427734 461.5 215.3605346679688 461.5 231 C 461.5 246.6394653320312 459.9244079589844 262.2689514160156 456.8170471191406 277.4542846679688 C 453.7886962890625 292.2535400390625 449.2699279785156 306.8104858398438 443.3863525390625 320.7208251953125 C 437.6095275878906 334.3788146972656 430.4593505859375 347.5519409179688 422.134521484375 359.8744201660156 C 413.8886413574219 372.0798950195312 404.4188232421875 383.5574035644531 393.9881286621094 393.9881286621094 C 383.5574035644531 404.4188232421875 372.0798950195312 413.8886413574219 359.8744201660156 422.134521484375 C 347.5519409179688 430.4593505859375 334.3788146972656 437.6095275878906 320.7208251953125 443.3863525390625 C 306.8104858398438 449.2699279785156 292.2535400390625 453.7886962890625 277.4542846679688 456.8170471191406 C 262.2689514160156 459.9244079589844 246.6394653320312 461.5 231 461.5 Z" stroke="none"/>
      <path d="M 231 1 C 215.3941192626953 1 199.79833984375 2.572174072265625 184.6459350585938 5.672821044921875 C 169.8790588378906 8.69451904296875 155.3539428710938 13.20339965820312 141.4739379882812 19.07412719726562 C 127.845703125 24.83840942382812 114.701171875 31.97299194335938 102.405517578125 40.27981567382812 C 90.22640991210938 48.5078125 78.77365112304688 57.95724487304688 68.365478515625 68.365478515625 C 57.95724487304688 78.77365112304688 48.5078125 90.22640991210938 40.27981567382812 102.405517578125 C 31.97299194335938 114.701171875 24.83840942382812 127.845703125 19.07412719726562 141.4739379882812 C 13.20339965820312 155.3539428710938 8.69451904296875 169.8790588378906 5.672821044921875 184.6459350585938 C 2.572174072265625 199.79833984375 1 215.3941192626953 1 231 C 1 246.6058807373047 2.572174072265625 262.20166015625 5.672821044921875 277.3540649414062 C 8.69451904296875 292.1209411621094 13.20339965820312 306.6460571289062 19.07412719726562 320.5260620117188 C 24.83840942382812 334.154296875 31.97299194335938 347.298828125 40.27981567382812 359.594482421875 C 48.5078125 371.7735900878906 57.95724487304688 383.2263488769531 68.365478515625 393.634521484375 C 78.77365112304688 404.0427551269531 90.22640991210938 413.4921875 102.405517578125 421.7201843261719 C 114.701171875 430.0270080566406 127.845703125 437.1615905761719 141.4739379882812 442.9258728027344 C 155.3539428710938 448.7966003417969 169.8790588378906 453.3054809570312 184.6459350585938 456.3271789550781 C 199.79833984375 459.4278259277344 215.3941192626953 461 231 461 C 246.6058807373047 461 262.20166015625 459.4278259277344 277.3540649414062 456.3271789550781 C 292.1209411621094 453.3054809570312 306.6460571289062 448.7966003417969 320.5260620117188 442.9258728027344 C 334.154296875 437.1615905761719 347.298828125 430.0270080566406 359.594482421875 421.7201843261719 C 371.7735900878906 413.4921875 383.2263488769531 404.0427551269531 393.634521484375 393.634521484375 C 404.0427551269531 383.2263488769531 413.4921875 371.7735900878906 421.7201843261719 359.594482421875 C 430.0270080566406 347.298828125 437.1615905761719 334.154296875 442.9258728027344 320.5260620117188 C 448.7966003417969 306.6460571289062 453.3054809570312 292.1209411621094 456.3271789550781 277.3540649414062 C 459.4278259277344 262.20166015625 461 246.6058807373047 461 231 C 461 215.3941192626953 459.4278259277344 199.79833984375 456.3271789550781 184.6459350585938 C 453.3054809570312 169.8790588378906 448.7966003417969 155.3539428710938 442.9258728027344 141.4739379882812 C 437.1615905761719 127.845703125 430.0270080566406 114.701171875 421.7201843261719 102.405517578125 C 413.4921875 90.22640991210938 404.0427551269531 78.77365112304688 393.634521484375 68.365478515625 C 383.2263488769531 57.95724487304688 371.7735900878906 48.5078125 359.594482421875 40.27981567382812 C 347.298828125 31.97299194335938 334.154296875 24.83840942382812 320.5260620117188 19.07412719726562 C 306.6460571289062 13.20339965820312 292.1209411621094 8.69451904296875 277.3540649414062 5.672821044921875 C 262.20166015625 2.572174072265625 246.6058807373047 1 231 1 M 231 0 C 358.5777587890625 0 462 103.4222412109375 462 231 C 462 358.5777587890625 358.5777587890625 462 231 462 C 103.4222412109375 462 0 358.5777587890625 0 231 C 0 103.4222412109375 103.4222412109375 0 231 0 Z" stroke="none" fill="#707070"/>
    </g>
    <rect id="Rectangle_19" data-name="Rectangle 19" width="211" height="462" transform="translate(669 540)" fill="#fff"/>
    <ellipse id="Ellipse_5" data-name="Ellipse 5" cx="123.5" cy="231" rx="123.5" ry="231" transform="translate(768 540)" fill="#fff"/>
    <g id="Rectangle_9" data-name="Rectangle 9" transform="translate(435.571 496.26) rotate(45)" stroke="#707070" stroke-width="1">
      <rect width="643" height="86" rx="15" stroke="none"/>
      <rect x="0.5" y="0.5" width="642" height="85" rx="14.5" fill="none"/>
    </g>
    <rect id="Rectangle_18" data-name="Rectangle 18" width="197" height="86" transform="translate(822.5 544.5) rotate(90)"/>
    <rect id="Rectangle_10" data-name="Rectangle 10" width="56" height="129" transform="translate(829 883)" fill="#fff"/>
    <rect id="Rectangle_12" data-name="Rectangle 12" width="175" height="19" rx="5" transform="translate(304 549)"/>
    <rect id="Rectangle_20" data-name="Rectangle 20" width="140" height="19" rx="5" transform="translate(682 544)"/>
    <rect id="Rectangle_13" data-name="Rectangle 13" width="171" height="56" transform="matrix(0.883, 0.469, -0.469, 0.883, 349.857, 496.15)"/>
    <rect id="Rectangle_14" data-name="Rectangle 14" width="50" height="16" transform="translate(355.723 558.184) rotate(25)"/>
    <rect id="Rectangle_11" data-name="Rectangle 11" width="218" height="82" transform="translate(282 467)" fill="#fff"/>
    <ellipse id="Ellipse_1" data-name="Ellipse 1" cx="62.5" cy="37" rx="62.5" ry="37" transform="matrix(0.875, 0.485, -0.485, 0.875, 337.774, 549.338)" fill="#fff"/>
    <rect id="Rectangle_15" data-name="Rectangle 15" width="175" height="19" rx="5" transform="translate(304 993)"/>
    <rect id="Rectangle_16" data-name="Rectangle 16" width="171" height="214" transform="translate(306 789)"/>
    <ellipse id="Ellipse_2" data-name="Ellipse 2" cx="97.5" cy="143.5" rx="97.5" ry="143.5" transform="translate(197 706)" fill="#fff"/>
    <ellipse id="Ellipse_3" data-name="Ellipse 3" cx="97.5" cy="143.5" rx="97.5" ry="143.5" transform="translate(392 706)" fill="#fff"/>
    <rect id="Rectangle_17" data-name="Rectangle 17" width="218" height="106" transform="translate(282 754)" fill="#fff"/>
    <path id="Path_6" data-name="Path 6" d="M51.38-3.4l54.866,104.062L15.3,103.051Z" transform="matrix(-0.946, 0.326, -0.326, -0.946, 870.508, 802.174)"/>
    <path id="Path_8" data-name="Path 8" d="M11.054,6.69,39.617-12.982,73.058,0V29.5H0Z" transform="translate(710.27 539.389) rotate(47)"/>
    <path id="Path_9" data-name="Path 9" d="M63.5,0c35.07,0,61.541,4.742,61.541,26.834,0,13.674.083,52.9-16.452,62.4C98.8,94.859,76.862,80,63.5,80,28.43,80,0,62.091,0,40S28.43,0,63.5,0Z" transform="matrix(0.996, -0.087, 0.087, 0.996, 608.165, 568.822)" fill="#fff"/>
  </g>
</svg>
