<svg xmlns="http://www.w3.org/2000/svg" xmlns:xlink="http://www.w3.org/1999/xlink" width="1920" height="800" viewBox="0 0 1920 800">
  <defs>
    <clipPath id="clip-Home_3">
      <rect width="1920" height="800"/>
    </clipPath>
  </defs>
  <g id="Home_3" data-name="Home – 3" clip-path="url(#clip-Home_3)">
    <rect width="1920" height="800" fill="#fff"/>
    <g id="Path_18" data-name="Path 18" transform="translate(624 43)" fill="none">
      <path d="M335.5,0C503.25,0,754.875,435.75,671,581S83.875,726.25,0,581,167.75,0,335.5,0Z" stroke="none"/>
      <path d="M 335.4998779296875 6 C 250.957763671875 6 145.5231323242188 123.0836791992188 78.53564453125 239.1196594238281 C 11.590087890625 355.0830993652344 -37.04998779296875 504.840576171875 5.19586181640625 577.9995727539062 C 47.4544677734375 651.1805419921875 201.5396728515625 683.9374389648438 335.5 683.9374389648438 C 469.460205078125 683.9374389648438 623.5454711914062 651.1805419921875 665.8041381835938 577.9995727539062 C 708.0499877929688 504.840576171875 659.409912109375 355.0832214355469 592.46435546875 239.1199035644531 C 525.476806640625 123.0838012695312 420.0421142578125 6 335.4998779296875 6 M 335.4998779296875 0 C 503.2498779296875 0 754.875 435.75 671 581 C 629.0625 653.625 482.28125 689.9375 335.5 689.9375 C 188.71875 689.9375 41.9375 653.625 0 581 C -83.875 435.75 167.7498779296875 0 335.4998779296875 0 Z" stroke="none" fill="#d72323"/>
    </g>
    <g id="Path_28" data-name="Path 28" transform="translate(624 43)" fill="none">
      <path d="M335.5,0C503.25,0,754.875,435.75,671,581S83.875,726.25,0,581,167.75,0,335.5,0Z" stroke="none"/>
      <path d="M 335.4998779296875 6 C 250.957763671875 6 145.5231323242188 123.0836791992188 78.53564453125 239.1196594238281 C 11.590087890625 355.0830993652344 -37.04998779296875 504.840576171875 5.19586181640625 577.9995727539062 C 47.4544677734375 651.1805419921875 201.5396728515625 683.9374389648438 335.5 683.9374389648438 C 469.460205078125 683.9374389648438 623.5454711914062 651.1805419921875 665.8041381835938 577.9995727539062 C 708.0499877929688 504.840576171875 659.409912109375 355.0832214355469 592.46435546875 239.1199035644531 C 525.476806640625 123.0838012695312 420.0421142578125 6 335.4998779296875 6 M 335.4998779296875 0 C 503.2498779296875 0 754.875 435.75 671 581 C 629.0625 653.625 482.28125 689.9375 335.5 689.9375 C 188.71875 689.9375 41.9375 653.625 0 581 C -83.875 435.75 167.7498779296875 0 335.4998779296875 0 Z" stroke="none" fill="#d72323"/>
    </g>
    <g id="Path_29" data-name="Path 29" transform="translate(624 43)" fill="none">
      <path d="M335.5,0C503.25,0,754.875,435.75,671,581S83.875,726.25,0,581,167.75,0,335.5,0Z" stroke="none"/>
      <path d="M 335.4998779296875 6 C 250.957763671875 6 145.5231323242188 123.0836791992188 78.53564453125 239.1196594238281 C 11.590087890625 355.0830993652344 -37.04998779296875 504.840576171875 5.19586181640625 577.9995727539062 C 47.4544677734375 651.1805419921875 201.5396728515625 683.9374389648438 335.5 683.9374389648438 C 469.460205078125 683.9374389648438 623.5454711914062 651.1805419921875 665.8041381835938 577.9995727539062 C 708.0499877929688 504.840576171875 659.409912109375 355.0832214355469 592.46435546875 239.1199035644531 C 525.476806640625 123.0838012695312 420.0421142578125 6 335.4998779296875 6 M 335.4998779296875 0 C 503.2498779296875 0 754.875 435.75 671 581 C 629.0625 653.625 482.28125 689.9375 335.5 689.9375 C 188.71875 689.9375 41.9375 653.625 0 581 C -83.875 435.75 167.7498779296875 0 335.4998779296875 0 Z" stroke="none" fill="#d72323"/>
    </g>
    <text id="I_am_" data-name="I am… " transform="translate(633 277)" font-size="91" font-family="Montserrat-SemiBold, Montserrat" font-weight="600"><tspan x="189.591" y="88">I am… </tspan></text>
    <text id="Nelson_Doan" data-name="Nelson Doan" transform="translate(634 400)" font-size="91" font-family="Montserrat-SemiBold, Montserrat" font-weight="600"><tspan x="25.791" y="88">Nelson Doan</tspan></text>
    <g id="Group_8" data-name="Group 8" transform="translate(-101 -466)">
      <rect id="Rectangle_28" data-name="Rectangle 28" width="355" height="127" transform="translate(151 466)" fill="#ff7474"/>
      <line id="Line_1" data-name="Line 1" y1="127" transform="translate(151.5 466)" fill="none" stroke="#000" stroke-width="7"/>
    </g>
    <text id="Disciplined" transform="translate(16 124)" font-size="91" font-family="Montserrat-SemiBold, Montserrat" font-weight="600"><tspan x="62.784" y="88">Disciplined</tspan></text>
    <text id="Driven" transform="translate(16 218)" font-size="91" font-family="Montserrat-SemiBold, Montserrat" font-weight="600"><tspan x="170.3" y="88">Driven</tspan></text>
    <text id="Dedicated" transform="translate(0 304)" font-size="91" font-family="Montserrat-SemiBold, Montserrat" font-weight="600"><tspan x="82.622" y="88">Dedicated</tspan></text>
    <text id="D" transform="translate(16 414)" font-size="91" font-family="Montserrat-SemiBold, Montserrat" font-weight="600"><tspan x="8.417" y="88">D</tspan></text>
  </g>
</svg>
